<?xml version="1.0" encoding="utf-8"?>
<!-- Generator: Adobe Illustrator 22.0.1, SVG Export Plug-In . SVG Version: 6.00 Build 0)  -->
<svg version="1.1" id="Layer_1" xmlns="http://www.w3.org/2000/svg" xmlns:xlink="http://www.w3.org/1999/xlink" x="0px" y="0px"
	 viewBox="0 0 376 424" style="enable-background:new 0 0 376 424;" xml:space="preserve">
<style type="text/css">
	.st0{fill:#FFFFFF;}
</style>
<g>
	<path class="st0" d="M327.8,218.9c-1.4-3.5-3.7-6.6-6.8-9.1c-3.1-2.5-7.2-4.5-12.3-5.9c-5.1-1.4-11.4-2.1-19-2.1
		c-7.7,0-14.4,0.7-20.2,2.1c-5.8,1.4-10.8,3.4-15.1,5.9c-4.3,2.5-7.9,5.6-10.9,9.1c-3,3.5-5.5,7.5-7.6,11.8
		c-2.1,4.3-3.9,8.9-5.3,13.9c-1.4,4.9-2.7,10-3.8,15.3l-0.1,0.5c-1.6,7.4-2.7,14.1-3.2,20.1c-0.6,6-0.3,11.4,0.6,16
		c0.6,3,1.7,5.7,3,8.1c0.4,0.7,0.8,1.3,1.2,1.9c2.2,2.8,5.7,4.6,9.6,4.6c6.7,0,12.2-5.4,12.2-12c0-2.3-0.7-4.4-1.8-6.3
		c-0.1-0.2-0.3-0.4-0.4-0.6c-0.2-0.4-0.5-0.8-0.7-1.2c-0.6-1.2-1.1-3-1.3-5.3c-0.2-2.3-0.2-5.3,0.2-9c0.3-3.7,1.1-8.4,2.3-14
		c0,0,3.9-16.8,5.6-21.4c1.6-4.5,3.7-8.2,6.2-11.1c2.5-2.9,5.7-5,9.6-6.3c3.9-1.3,8.7-2,14.6-2h1c5.9,0,10.5,0.7,13.7,2
		c3.3,1.3,5.6,3.4,6.9,6.3c1.3,2.9,1.8,6.6,1.4,11.1c-0.3,4.5-6.5,33.1-8.1,37.7c-1.6,4.5-3.7,8.2-6.2,11.1c-2.5,2.9-5.7,5-9.6,6.3
		c-3.9,1.3-8.7,1.9-14.5,1.9l-0.9,0c-1.3,0-2.7,0.2-4,0.5c-1.3,0.3-2.6,0.8-3.7,1.4c-1.1,0.6-2.1,1.4-2.9,2.3
		c-0.8,1-1.4,2.1-1.6,3.4c0,0-11.3,51-11.4,51.3c-0.2,1.4-0.1,2.8,0.3,4.2c1,3.8,4.1,6.9,8.3,7.8c5.9,1.3,11.8-2.4,13.1-8.3
		c0.1-0.3,9.9-43,9.9-43c6.1-0.7,10.4-1.9,15.1-3.6c4.6-1.7,8.7-3.9,12.1-6.6c3.5-2.6,6.5-5.7,9-9.1c2.5-3.4,4.6-7.2,6.4-11.2
		c1.8-4,3.3-8.3,4.6-12.9c1.3-4.6,2.4-9.2,3.5-14l0.1-0.5c1.1-5.2,2.1-10.3,2.8-15.3c0.7-4.9,1-9.6,0.7-13.9
		C330.1,226.4,329.2,222.4,327.8,218.9z"/>
	<path class="st0" d="M121.1,219.1c0.4-0.1,1.3-0.8,1.6-1.8l6-27.3c0.9-4.2,6-6.4,10.2-6.4c2.3,0,4.3,0.7,5.6,1.9l41.6,38.6v-33.9
		l-91.3-22C95.9,188.1,105,205.9,121.1,219.1z"/>
	<path class="st0" d="M108.5,317.9c-2.1,0-3.9-0.8-5-2.2c-1.1-1.3-1.4-3.1-1-4.9l6.9-32C93,273,79.2,264.2,68.3,253v53
		c0,4.3,3,8.1,7.2,9.1l105.3,26.1c1.2,0.3,2.6,0,3.7-0.8c0.9-0.7,1.5-1.8,1.5-2.9v-69.8l-71.8,48.2
		C112.4,317.2,110.4,317.9,108.5,317.9z"/>
	<path class="st0" d="M94.5,164.7l87.9,21.2l5.3,1.3l95-23.5c2.2-0.5,2.9-2.3,3-3.7c0-1.4-0.8-3.2-2.9-3.7l-88.7-22.8
		c-4.2-1-8.6-1-12.7,0l-86.3,21.2C94.7,157.9,94.5,161.3,94.5,164.7z"/>
	<polygon class="st0" points="94.5,164.7 182.4,185.8 94.5,164.7 	"/>
	<path class="st0" d="M91.1,163.8C91.1,163.8,91.1,163.8,91.1,163.8L91.1,163.8z"/>
	<path class="st0" d="M157.8,59.7c3.3,0,3.2,4-1.1,6.4C125,84.4,100.4,113,93.2,145c-0.5,2.3-0.9,4.5-1.2,6.7
		c-0.1,0.6-0.2,1.2-0.3,1.8c-0.1,0.6-0.1,1.2-0.2,1.8c-0.3,2.9-0.4,5.7-0.4,8.5v0c0,0.6,0,1.2,0,1.8c0,0.6,0,1.2,0.1,1.8
		c0,0,0,0,0,0c1,21.8,11.2,40.9,27.9,54.5c0.6,0.5,1.2,0.7,1.9,0.7c2.1,0,4.5-2,5-4.5l5.9-27.3c0.5-2.3,4-3.7,6.8-3.7
		c1.3,0,2.5,0.3,3.2,1l43.9,40.8l1.7,1.6l1.7,1.6l11.9,11c3.4,3.2,2.1,8.8-2.7,12.1l-9.2,6.2l-1.7,1.2l-1.7,1.2l-73.7,49.5
		c-1.3,0.9-2.7,1.3-3.8,1.3c-1.8,0-3.1-1.1-2.7-2.9l7.2-32.9c0.3-1.3-0.3-2.3-1.6-2.7c-17.6-6.1-32.1-15.7-43-27.9
		c-0.6-0.7-1.2-1.3-1.7-2c-0.6-0.7-1.2-1.4-1.7-2.1c-16.1-20.4-22.4-47.2-15.9-76.6C60,118.5,100.1,79.9,155.7,60.1
		C156.5,59.8,157.2,59.7,157.8,59.7 M157.8,55c-1.2,0-2.4,0.2-3.7,0.7C95.5,76.6,55.5,116.9,44.5,166.3
		c-6.7,29.8-0.7,58.4,16.8,80.5c0.6,0.7,1.1,1.4,1.7,2.1L63,249c0.6,0.7,1.2,1.4,1.8,2.1c11.2,12.6,25.7,22.2,43.1,28.5l-6.7,30.9
		c-0.5,2.2,0,4.3,1.3,5.9c1.4,1.7,3.5,2.7,6,2.7c2.2,0,4.5-0.8,6.5-2.1l73.7-49.5l1.7-1.2l1.7-1.2l9.2-6.2c3.9-2.6,6.3-6.5,6.6-10.5
		c0.3-3.4-0.9-6.5-3.3-8.8l0,0l0,0l-11.9-11l-1.7-1.6l-1.7-1.6l-43.9-40.8c-1.6-1.5-3.8-2.3-6.4-2.3c-4.9,0-10.3,2.5-11.4,7.4
		l-6,27.3c0,0.2-0.1,0.3-0.3,0.5c-15.4-12.9-24.4-30.7-25.3-50.3c0-0.6,0-1.1-0.1-1.7c0-0.6,0-1.1,0-1.7c0-2.6,0.1-5.3,0.4-8l0-0.3
		c0-0.5,0.1-1,0.2-1.4c0.1-0.5,0.1-1,0.2-1.5l0-0.2c0.3-2.2,0.7-4.3,1.2-6.4c6.6-29.5,29-57.2,61.3-75.9c4.3-2.5,6.5-6.6,5.5-10.3
		C163.8,56.9,161.1,55,157.8,55L157.8,55z"/>
</g>
</svg>
