<?xml version="1.0" encoding="utf-8"?>
<!-- Generator: Adobe Illustrator 22.0.1, SVG Export Plug-In . SVG Version: 6.00 Build 0)  -->
<svg version="1.1" id="Layer_1" xmlns="http://www.w3.org/2000/svg" xmlns:xlink="http://www.w3.org/1999/xlink" x="0px" y="0px"
	 viewBox="0 0 940 424" style="enable-background:new 0 0 940 424;" xml:space="preserve">
<style type="text/css">
	.st0{fill:#E6E6E6;}
	.st1{fill:#CCCCCC;}
	.st2{fill:#303030;}
	.st3{fill:#00E2A5;}
</style>
<g>
	<g>
		<path class="st0" d="M157,331.3L49.3,304.8c-5.2-1.3-8.8-5.9-8.8-11.2V141.3l123.6,30.5v153.9C164.1,329.5,160.6,332.2,157,331.3z
			"/>
	</g>
	<g>
		<path class="st1" d="M40.5,141.3l124,30.3l101-24.7c5.9-1.4,5.9-9.7,0-11.2l-94-23.7c-4.6-1.2-9.4-1.2-14,0L40.5,141.3z"/>
	</g>
	<g>
		<g>
			<path class="st2" d="M314.4,215.6c-0.3-4.8-1.2-9.2-2.8-13.2c-1.6-4-4.1-7.4-7.6-10.2c-3.5-2.8-8-5-13.7-6.6
				c-5.7-1.6-12.7-2.4-21.1-2.4c-8.5,0-16,0.8-22.4,2.4c-6.4,1.6-12,3.8-16.7,6.6c-4.8,2.8-8.8,6.2-12.1,10.2
				c-3.3,4-6.1,8.4-8.5,13.2c-2.3,4.8-4.3,10-5.9,15.5c-1.6,5.5-3,11.2-4.3,17.1l-0.1,0.5c-1.8,8.2-3,15.7-3.6,22.5
				c-0.6,6.7-0.4,12.7,0.7,17.9c0.7,3.4,1.8,6.4,3.4,9c0.4,0.8,0.9,1.5,1.4,2.1c2.5,3.2,6.3,5.2,10.7,5.2c7.5,0,13.6-6,13.6-13.5
				c0-2.6-0.7-5-2-7c-0.2-0.2-0.3-0.4-0.5-0.7c-0.3-0.4-0.5-0.9-0.8-1.3c-0.7-1.4-1.2-3.3-1.4-5.9c-0.2-2.6-0.2-5.9,0.2-10
				c0.4-4.1,1.3-9.3,2.6-15.7l1.2-5.7c1.5-7.1,3.2-13.1,5-18.2c1.8-5.1,4.1-9.2,6.9-12.4c2.8-3.2,6.4-5.5,10.6-7
				c4.3-1.5,9.7-2.2,16.2-2.2h1.1c6.5,0,11.6,0.7,15.3,2.2c3.6,1.5,6.2,3.8,7.6,7c1.4,3.2,2,7.3,1.6,12.4
				c-0.4,5.1-1.3,11.1-2.8,18.2l-1.2,5.7c-1.5,7.1-3.2,13.1-5,18.2c-1.8,5.1-4.1,9.2-6.9,12.4c-2.8,3.2-6.3,5.5-10.6,7
				c-4.3,1.5-9.7,2.2-16.2,2.2h-0.5c-1.5,0-2.9,0.2-4.4,0.5c-1.5,0.3-2.9,0.8-4.1,1.5c-1.3,0.7-2.3,1.5-3.3,2.6
				c-0.9,1.1-1.5,2.3-1.8,3.8c0,0-16.4,73.6-16.5,74c-0.2,1.6-0.1,3.2,0.4,4.6c1.2,4.2,4.6,7.7,9.2,8.7c6.6,1.4,13.1-2.7,14.6-9.2
				c0.1-0.3,0.1-0.6,0.2-0.9l14.2-63.8c6.7-0.7,11.6-2.1,16.7-4c5.1-2,9.6-4.4,13.5-7.4c3.9-3,7.2-6.4,10-10.2
				c2.8-3.8,5.1-8,7.1-12.5c2-4.5,3.7-9.3,5.1-14.4c1.4-5.1,2.7-10.3,3.8-15.7l0.1-0.5c1.3-5.9,2.3-11.5,3.1-17.1
				C314.4,225.6,314.7,220.4,314.4,215.6z"/>
		</g>
	</g>
	<g>
		<path class="st2" d="M381.1,232.8c0.3-1.3,0.8-2.4,1.6-3.1c0.8-0.8,1.8-1.4,2.9-1.8c1.1-0.4,2.4-0.7,3.7-0.8
			c1.3-0.1,2.7-0.2,4.1-0.2c1.5,0,2.9,0.1,4.2,0.2c1.3,0.1,2.5,0.4,3.4,0.8c1,0.4,1.6,1,2.1,1.8c0.4,0.8,0.5,1.8,0.2,3.1l-13.9,65.7
			c-0.5,2.4-1.9,4.5-4.2,6.2c-2.3,1.7-5.5,3.1-9.7,4.1c-4.1,1-9.2,1.8-15.2,2.3c-6,0.5-13,0.7-20.9,0.7c-6.2,0-11-1.1-14.5-3.3
			c-3.4-2.2-5.8-5.2-7.2-9.2c-1.4-4-1.9-8.6-1.6-14.1c0.3-5.4,1.2-11.5,2.6-18l7.2-34.3c0.3-1.3,0.8-2.4,1.6-3.1
			c0.8-0.8,1.8-1.4,2.9-1.8c1.1-0.4,2.4-0.7,3.7-0.8c1.3-0.1,2.7-0.2,4.1-0.2c1.5,0,2.9,0.1,4.2,0.2c1.3,0.1,2.5,0.4,3.4,0.8
			c1,0.4,1.6,1,2.1,1.8c0.4,0.8,0.5,1.8,0.2,3.1l-8,38.1c-0.8,3.6-1.3,6.8-1.6,9.6c-0.3,2.7-0.1,5,0.4,6.8c0.6,1.8,1.7,3.2,3.3,4.1
			c1.6,0.9,4,1.4,7,1.4c5.2,0,9.1-0.1,11.8-0.3c2.7-0.2,4.6-0.5,5.8-1c1.2-0.4,1.8-1,2.1-1.7c0.2-0.7,0.4-1.6,0.6-2.7L381.1,232.8z"
			/>
		<path class="st2" d="M466.9,275.6c-2.8,0.6-5.8,1.2-9,1.7c-3.3,0.5-6.6,1-10.1,1.4c-3.4,0.4-6.9,0.8-10.3,1.2
			c-3.5,0.4-6.7,0.7-9.8,1c-0.3,1.9-0.3,3.6-0.2,5.1c0.2,1.5,0.7,2.8,1.6,3.8s2.2,1.9,4,2.4c1.8,0.6,4.2,0.8,7.2,0.8
			c3.2,0,6.2-0.2,9-0.5c2.8-0.3,5.3-0.7,7.6-1.1c2.3-0.4,4.4-0.8,6.2-1.2c1.8-0.4,3.4-0.5,4.7-0.5c1.4,0,2.4,0.2,3.2,0.7
			c0.8,0.4,1.3,1,1.6,1.7c0.3,0.7,0.5,1.5,0.4,2.3c0,0.9-0.2,1.7-0.3,2.6c-0.5,2.5-1.8,4.7-3.7,6.5c-1.9,1.9-4.4,3.4-7.5,4.6
			c-3.1,1.2-6.7,2.1-10.9,2.7c-4.2,0.6-8.8,0.9-13.8,0.9c-5.9,0-10.8-0.4-14.8-1.2c-4-0.8-7.2-2.1-9.7-3.7c-2.5-1.6-4.3-3.6-5.4-5.9
			c-1.1-2.3-1.8-5-2-8c-0.2-3-0.1-6.3,0.5-10c0.5-3.6,1.2-7.6,2.1-11.8c1.4-6.7,3.1-12.8,5.2-18.2c2.1-5.5,4.9-10.1,8.4-14
			c3.6-3.8,8.1-6.8,13.6-8.9c5.5-2.1,12.4-3.2,20.7-3.2c5.3,0,10.1,0.5,14.4,1.4c4.3,0.9,7.8,2.4,10.7,4.4c2.9,2,5,4.6,6.3,7.8
			c1.3,3.2,1.8,7.1,1.4,11.6c-0.3,3.2-1,6.1-1.9,8.6c-0.9,2.5-2.2,4.8-3.8,6.8c-1.6,2-3.7,3.6-6.3,5
			C473.7,273.8,470.6,274.8,466.9,275.6z M454.7,244.6c-4.2,0-7.6,0.4-10.3,1.3c-2.7,0.9-4.9,2.2-6.6,3.9c-1.7,1.7-3.1,3.8-4.1,6.3
			c-1,2.5-1.9,5.4-2.6,8.7c2.1-0.2,4.3-0.4,6.8-0.6c2.5-0.2,5-0.5,7.4-0.8c2.4-0.3,4.8-0.6,7-0.8c2.3-0.3,4.2-0.6,6-0.9
			c2.6-0.5,4.5-1.3,5.6-2.5c1.1-1.2,1.8-2.5,2.1-3.9c0.4-1.9,0.4-3.5-0.1-4.8c-0.5-1.4-1.2-2.5-2.3-3.3c-1.1-0.9-2.4-1.5-3.9-1.9
			S456.6,244.6,454.7,244.6z"/>
		<path class="st2" d="M539.8,310.8h-1.2c-1.6,0-3.1-0.1-4.4-0.2c-1.4-0.1-2.5-0.4-3.5-0.8c-1-0.4-1.7-1-2.2-1.8
			c-0.5-0.8-0.6-1.8-0.3-3.1l0.7-3.5l0.1-0.5l0.2-0.7l10.4-49.2l0.1-0.5l9.7-45.9c0.1-0.6,0.2-1,0.3-1.2c0.3-0.8,0.8-1.7,1.4-2.7
			c0.6-1,1.5-1.9,2.6-2.8c1.1-0.9,2.4-1.6,3.9-2.2c1.5-0.6,3.4-0.9,5.5-0.9c9.4,0,17.6,0,24.4,0s12.6,0,17.4,0c4.8,0,8.7,0,11.7,0
			s5.4,0,7.1,0c1.7,0,3,0.1,3.7,0.1c0.8,0,1.3,0,1.6,0c1,0.1,1.8,0.4,2.5,1c0.7,0.6,1.2,1.3,1.5,2.2c0.4,0.9,0.6,1.9,0.6,3.1
			c0.1,1.2,0,2.3-0.3,3.5c-0.6,2.8-1.5,4.9-2.7,6.3c-1.2,1.4-2.6,2.4-4.1,3c-1.5,0.6-3.2,0.9-5,0.9c-1.8,0-3.5,0-5.2,0h-46.1
			l-5.5,26c6.3,0,11.6,0,16,0c4.4,0,8.2,0,11.2,0c3,0,5.5,0,7.3,0c1.8,0,3.3,0,4.3,0c1,0,1.8,0.1,2.2,0.1c0.5,0,0.8,0,1.1,0
			c1,0.1,1.8,0.3,2.6,0.9c0.7,0.5,1.3,1.2,1.8,2.1c0.5,0.9,0.8,1.9,0.9,3.1c0.1,1.2,0,2.4-0.3,3.7c-0.4,1.8-0.9,3.3-1.6,4.6
			c-0.7,1.3-1.4,2.4-2.3,3.2c-0.8,0.8-1.7,1.5-2.7,1.9s-1.9,0.6-2.8,0.6h-42.1l-6.2,29.3h46.1c1.7,0,3.4,0,5.2,0
			c1.8,0,3.3,0.3,4.6,0.9c1.3,0.6,2.2,1.6,2.8,3c0.6,1.4,0.6,3.5,0,6.3c-0.2,1.2-0.6,2.3-1.2,3.5c-0.5,1.2-1.2,2.2-1.9,3.1
			c-0.7,0.9-1.6,1.7-2.5,2.2c-0.9,0.6-1.9,0.9-2.9,1c-0.5,0.1-1,0.1-1.4,0.1c-0.4,0-1,0-1.6,0c-0.7,0-1.5,0-2.5,0c-1,0-2.4,0-4.1,0
			H539.8z"/>
		<path class="st2" d="M645.7,305.8c-0.3,1.3-0.8,2.4-1.6,3.2c-0.8,0.8-1.8,1.4-2.9,1.8c-1.1,0.4-2.4,0.7-3.7,0.8
			c-1.3,0.1-2.7,0.2-4.1,0.2c-1.5,0-2.9-0.1-4.2-0.2c-1.3-0.1-2.5-0.4-3.4-0.8s-1.6-1-2.1-1.8s-0.5-1.8-0.2-3.1l13.5-64
			c1-4.9,5.7-8.6,14-11.1c8.3-2.5,20.4-3.8,36.4-3.8c6.1,0,10.9,1.1,14.4,3.3c3.5,2.2,5.9,5.3,7.3,9.2c1.4,4,1.9,8.7,1.6,14.1
			c-0.3,5.5-1.2,11.5-2.6,18l-7.2,34.3c-0.3,1.3-0.8,2.4-1.6,3.2c-0.8,0.8-1.8,1.4-2.9,1.8c-1.1,0.4-2.4,0.7-3.7,0.8
			c-1.3,0.1-2.7,0.2-4.1,0.2c-1.5,0-2.9-0.1-4.2-0.2c-1.3-0.1-2.5-0.4-3.4-0.8s-1.6-1-2.1-1.8c-0.4-0.8-0.5-1.8-0.2-3.1l8-38.1
			c0.8-3.6,1.3-6.8,1.6-9.6c0.3-2.7,0.1-5-0.4-6.8c-0.6-1.8-1.7-3.2-3.3-4.1c-1.6-0.9-4-1.4-7-1.4c-3.5,0-6.3,0.1-8.7,0.2
			c-2.3,0.2-4.2,0.4-5.7,0.7c-1.5,0.3-2.6,0.7-3.4,1.1c-0.8,0.4-1.4,0.9-1.8,1.5c-0.4,0.6-0.6,1.1-0.7,1.8c-0.1,0.6-0.2,1.3-0.4,1.9
			L645.7,305.8z"/>
		<path class="st2" d="M778.5,238.3c1.4-2.7,2.5-4.8,3.3-6.3c0.8-1.5,1.6-2.6,2.4-3.4c0.8-0.7,1.7-1.2,2.8-1.4
			c1-0.2,2.5-0.2,4.5-0.2c1.4,0,2.9,0.3,4.6,0.8c1.6,0.5,2.9,1.4,4,2.6c1,1.2,1.6,2.8,1.7,4.7c0.1,1.9-0.6,4.3-2.1,7.2l-29.6,55
			c-2,3.7-4,6.5-6,8.5c-2,2-4,3.4-6,4.3c-2,0.9-4,1.4-6,1.5c-2,0.1-3.9,0.2-5.8,0.2h-1.6c-1.9,0-3.9-0.1-5.8-0.2
			c-2-0.1-3.7-0.6-5.4-1.5c-1.6-0.9-3-2.3-4.2-4.3c-1.1-2-1.9-4.8-2.4-8.5l-6.3-55c-0.3-2.9,0-5.3,0.9-7.2c0.9-1.9,2.2-3.5,3.7-4.7
			c1.5-1.2,3.2-2,5.1-2.6c1.8-0.5,3.5-0.8,4.9-0.8c1.9,0,3.3,0.1,4.3,0.2c1,0.2,1.7,0.6,2.2,1.4c0.5,0.7,0.8,1.9,1,3.4
			c0.2,1.5,0.4,3.6,0.6,6.3l4.9,53.4c0,0.4,0,0.8,0.1,1c0.1,0.2,0.3,0.4,0.6,0.5h0.3c0.1,0,0.2,0,0.3,0c0.1,0,0.1,0,0.2,0
			c0.4-0.1,0.7-0.2,0.8-0.5c0.1-0.2,0.3-0.6,0.6-1L778.5,238.3z"/>
		<path class="st2" d="M816.8,305.8c-0.3,1.3-0.8,2.4-1.6,3.2c-0.8,0.8-1.8,1.4-2.9,1.8c-1.1,0.4-2.4,0.7-3.7,0.8
			c-1.3,0.1-2.7,0.2-4.1,0.2c-1.5,0-2.9-0.1-4.2-0.2c-1.3-0.1-2.5-0.4-3.4-0.8s-1.6-1-2.1-1.8c-0.4-0.8-0.5-1.8-0.2-3.1l15.4-72.9
			c0.3-1.3,0.8-2.4,1.6-3.1c0.8-0.8,1.8-1.4,2.9-1.8c1.1-0.4,2.4-0.7,3.7-0.8c1.3-0.1,2.7-0.2,4.1-0.2c1.5,0,2.9,0.1,4.2,0.2
			c1.3,0.1,2.5,0.4,3.4,0.8c1,0.4,1.6,1,2.1,1.8c0.4,0.8,0.5,1.8,0.2,3.1L816.8,305.8z M816.9,199.7c0.3-1.3,0.8-2.4,1.6-3.2
			c0.8-0.8,1.8-1.4,2.9-1.8c1.1-0.4,2.4-0.7,3.7-0.8c1.3-0.1,2.7-0.2,4.1-0.2c1.5,0,2.9,0.1,4.2,0.2c1.3,0.1,2.5,0.4,3.4,0.8
			s1.6,1,2.1,1.8c0.4,0.8,0.5,1.8,0.2,3.1l-2.3,10.8c-0.3,1.3-0.8,2.4-1.6,3.2c-0.8,0.8-1.8,1.4-2.9,1.8c-1.1,0.4-2.4,0.7-3.7,0.8
			c-1.3,0.1-2.7,0.2-4.1,0.2c-1.5,0-2.9-0.1-4.2-0.2c-1.3-0.1-2.5-0.4-3.4-0.8c-1-0.4-1.7-1-2.1-1.8c-0.4-0.8-0.5-1.8-0.2-3.1
			L816.9,199.7z"/>
		<path class="st2" d="M868.1,311.8c-5.9,0-10.8-0.5-14.8-1.6c-4-1-7.3-2.5-9.8-4.4c-2.5-1.9-4.3-4.2-5.5-6.8
			c-1.2-2.6-1.9-5.5-2.2-8.6c-0.3-3.1-0.2-6.5,0.2-10c0.4-3.5,1.1-7.2,1.8-10.9l0.1-0.3c0.8-3.7,1.7-7.3,2.7-10.9
			c1-3.5,2.4-6.9,4-10c1.6-3.1,3.6-6,5.9-8.6c2.3-2.6,5.1-4.9,8.4-6.8c3.3-1.9,7.2-3.4,11.6-4.4c4.4-1,9.6-1.6,15.5-1.6h0.5
			c5.9,0,10.8,0.5,14.8,1.6c4,1,7.3,2.5,9.8,4.4c2.5,1.9,4.3,4.2,5.5,6.8c1.2,2.6,1.9,5.5,2.2,8.6c0.3,3.1,0.2,6.5-0.2,10
			c-0.4,3.5-1.1,7.2-1.8,10.9l-0.1,0.3c-0.8,3.7-1.7,7.3-2.7,10.9c-1,3.5-2.4,6.9-4,10c-1.6,3.1-3.6,6-5.9,8.6
			c-2.3,2.6-5.1,4.9-8.4,6.8c-3.3,1.9-7.2,3.4-11.6,4.4c-4.4,1-9.6,1.6-15.5,1.6H868.1z M872.8,293.5c4,0,7.2-0.5,9.6-1.5
			c2.5-1,4.4-2.5,5.9-4.4c1.5-1.9,2.7-4.3,3.5-7c0.9-2.8,1.7-6,2.4-9.6l0.7-3.3c0.7-3.5,1.3-6.7,1.6-9.5c0.3-2.8,0.1-5.2-0.6-7.1
			c-0.7-1.9-2.1-3.4-4.1-4.4c-2-1-5-1.5-9-1.5h-1.2c-4,0-7.2,0.5-9.6,1.5c-2.5,1-4.4,2.5-5.9,4.4c-1.5,1.9-2.7,4.3-3.6,7.1
			c-0.9,2.8-1.7,6-2.4,9.5l-0.7,3.3c-0.8,3.6-1.3,6.8-1.6,9.6c-0.3,2.8-0.1,5.1,0.6,7c0.7,1.9,2.1,3.4,4.1,4.4c2,1,5,1.5,9,1.5
			H872.8z"/>
	</g>
	<g>
		<path class="st2" d="M338.1,151.1c-1.6,0-2.9-0.2-4-0.7c-1.1-0.2-1.9-0.5-2.5-1c-0.6-0.5-0.8-1.3-0.6-2.4l0.2-1l0.1-0.5l0.2-0.7
			l21.8-102.6l0.1-0.3c0.3-1.5,1.3-2.8,2.8-3.9c1.6-1.1,3.6-1.6,6.2-1.6l35.2,0h0.2c7.5,0,13.7,0.7,18.8,2.1c5,1.4,9.1,3.3,12.2,5.8
			c3.1,2.5,5.4,5.5,6.8,9c1.4,3.5,2.3,7.4,2.5,11.6c0.3,4.2,0.1,8.8-0.6,13.6c-0.7,4.8-1.6,9.8-2.6,14.9l-0.1,0.6
			c-1.1,5.1-2.3,10.1-3.7,14.9c-1.4,4.8-3.1,9.3-5.2,13.5c-2.1,4.2-4.5,8-7.4,11.5c-2.9,3.5-6.4,6.5-10.6,9
			c-4.2,2.5-9.1,4.5-14.7,5.9c-5.6,1.4-12.2,2.1-19.7,2.2l-0.6,0L338.1,151.1z M395,47.7l-30,0l-19.7,92.2c1.1,0,2.6,0,4.4,0
			c1.9,0,3.9,0,6.1,0c2.2,0,4.5,0,6.8,0c2.3,0,4.4,0,6.3,0c1.9,0,3.4,0,4.6,0c1.2,0,1.9,0,1.9,0l0.2,0h0.7c5.4,0,10.2-0.5,14.3-1.5
			c4.1-1,7.7-2.4,10.7-4.2c3-1.8,5.6-4,7.8-6.6c2.1-2.6,4-5.5,5.5-8.8c1.5-3.3,2.8-6.8,3.9-10.7c1.1-3.8,2.1-7.9,3-12.2l0.8-3.8
			c0.9-4.3,1.6-8.4,2.2-12.2c0.5-3.8,0.7-7.4,0.6-10.7s-0.7-6.2-1.8-8.8c-1-2.6-2.7-4.8-5-6.7c-2.3-1.8-5.2-3.2-8.9-4.2
			c-3.7-1-8.2-1.5-13.7-1.5L395,47.7L395,47.7z"/>
		<path class="st2" d="M497.3,113.5c-2.9,0.7-6.2,1.4-9.9,2.1c-3.7,0.7-7.6,1.3-11.5,2c-4,0.6-7.9,1.2-11.8,1.8
			c-3.9,0.5-7.5,1-10.6,1.4c-0.6,3.4-0.8,6.5-0.7,9.1c0.1,2.6,0.8,4.8,2.1,6.6c1.3,1.8,3.2,3.1,5.9,4c2.7,0.9,6.2,1.3,10.7,1.3
			c4.5,0,8.4-0.4,11.6-1.1c3.2-0.7,6-1.5,8.2-2.4c2.2-0.9,4-1.7,5.4-2.4c1.3-0.7,2.4-1.2,3.1-1.3c1.3-0.1,2.3,0.3,2.9,1.1
			c0.6,0.8,0.8,1.9,0.5,3.2c-0.4,1.7-1.4,3.4-3.2,5c-1.7,1.6-4.1,2.9-6.9,4.1c-2.9,1.2-6.3,2.2-10.2,2.9c-3.9,0.7-8.2,1.1-12.9,1.1
			c-5.5,0-10.1-0.4-13.8-1.2c-3.7-0.8-6.7-2-9-3.6c-2.3-1.6-3.9-3.6-5-5.9c-1-2.3-1.7-4.9-1.8-7.9c-0.2-3,0-6.3,0.6-9.9
			c0.5-3.6,1.3-7.5,2.1-11.6c1.4-6.6,3.1-12.6,5.1-18c2-5.4,4.7-10,8-13.8c3.4-3.8,7.7-6.7,12.8-8.8c5.2-2.1,11.6-3.1,19.4-3.1
			c5,0,9.6,0.5,13.7,1.4c4.1,0.9,7.5,2.4,10.3,4.3c2.8,2,4.7,4.5,5.9,7.6c1.2,3.1,1.4,6.8,0.7,11.2c-0.5,3.1-1.2,5.7-2.1,7.9
			c-0.9,2.2-2.2,4.1-3.8,5.7c-1.7,1.6-3.7,3-6.3,4.2C504.3,111.7,501.1,112.7,497.3,113.5z M489.6,77.9c-4.2,0-7.9,0.3-11,1
			c-3.1,0.7-5.8,1.7-8,3c-2.2,1.3-4.1,2.9-5.7,4.8c-1.5,1.9-2.9,4.1-4,6.6c-1.1,2.5-2.1,5.2-2.9,8.3c-0.8,3-1.7,6.3-2.5,9.8
			c2.4-0.3,5.3-0.7,8.6-1.2c3.3-0.5,6.8-1,10.3-1.5c3.6-0.5,7.1-1.1,10.5-1.7c3.5-0.6,6.6-1.1,9.3-1.7c3.9-0.8,6.8-2.1,8.9-4
			c2.1-1.8,3.4-4.6,3.9-8.3c0.4-2.5,0.2-4.6-0.6-6.5c-0.8-1.9-2-3.5-3.6-4.7c-1.6-1.3-3.6-2.2-5.9-2.9
			C494.6,78.3,492.2,77.9,489.6,77.9z"/>
		<path class="st2" d="M565.9,151.9c-2.5,0-5.1,0-8-0.1c-2.8-0.1-5.6-0.3-8.4-0.6c-2.8-0.3-5.4-0.8-7.9-1.4
			c-2.5-0.6-4.7-1.5-6.7-2.6l-7.1,33.4c-0.2,1.1-0.5,2-0.8,2.6c-0.3,0.7-0.6,1.1-1,1.5c-0.4,0.3-0.8,0.5-1.3,0.6
			c-0.5,0.1-1.1,0.1-1.8,0.1c-0.8,0-1.7-0.1-2.7-0.2c-1-0.1-1.9-0.4-2.6-0.9c-0.8-0.5-1.3-1.1-1.7-2c-0.4-0.9-0.4-2.1-0.1-3.7
			l20-94.3c0.4-2,1.5-3.8,3.2-5.4c1.7-1.6,3.8-3,6.3-4.2c2.5-1.2,5.3-2.2,8.5-3.1c3.2-0.8,6.5-1.5,9.9-2c3.4-0.5,6.8-0.9,10.2-1.1
			c3.4-0.2,6.6-0.4,9.7-0.4c5.7,0,10.2,1.1,13.4,3.2c3.2,2.2,5.5,5.2,6.7,9.1c1.2,3.9,1.7,8.5,1.3,13.9c-0.4,5.4-1.2,11.3-2.6,17.7
			l-0.2,0.8c-1.2,5.5-2.6,10.5-4.3,15.3c-1.7,4.7-3.9,8.8-6.7,12.4c-2.8,3.5-6.2,6.3-10.3,8.3C577,150.9,571.9,151.9,565.9,151.9z
			 M537.6,134.7c-0.1,1.1,0.6,2,2.2,2.9c1.6,0.8,3.8,1.5,6.4,2.1c2.7,0.6,5.7,1,9.1,1.4c3.4,0.4,6.9,0.6,10.4,0.6
			c2.6,0.1,5-0.1,7.3-0.7c2.3-0.5,4.5-1.7,6.5-3.4c2-1.7,3.8-4.2,5.4-7.4c1.6-3.2,3-7.4,4.2-12.7l1.9-9.2c1-4.8,1.6-8.9,1.7-12.2
			c0.1-3.3-0.1-6.1-0.6-8.3c-0.6-2.2-1.4-3.9-2.5-5.2c-1.1-1.2-2.4-2.1-3.8-2.7c-1.4-0.6-3-1-4.6-1.1c-1.6-0.1-3.2-0.2-4.8-0.2
			c-3.7,0-7.2,0.3-10.6,0.8c-3.4,0.5-6.4,1.2-9.1,2.1c-2.7,0.9-4.8,1.9-6.5,3c-1.7,1.1-2.6,2.2-2.9,3.4L537.6,134.7z"/>
		<path class="st2" d="M642,152c-5.5,0-10.2-0.5-13.9-1.6c-3.7-1-6.8-2.5-9.1-4.4c-2.3-1.9-4.1-4.1-5.2-6.7c-1.1-2.6-1.8-5.4-2-8.5
			c-0.2-3.1-0.1-6.4,0.3-9.9c0.4-3.5,1.1-7.1,1.8-10.7l0.1-0.3c0.8-3.7,1.7-7.2,2.7-10.7c1-3.5,2.3-6.8,3.8-9.9
			c1.5-3.1,3.4-5.9,5.6-8.5c2.2-2.6,4.9-4.8,8-6.7c3.1-1.9,6.8-3.3,11-4.4c4.2-1,9-1.6,14.6-1.6h0.5c5.5,0,10.2,0.5,13.9,1.6
			c3.8,1,6.8,2.5,9.1,4.4c2.3,1.9,4,4.1,5.2,6.7c1.1,2.6,1.8,5.4,2,8.5s0.1,6.4-0.3,9.9c-0.4,3.5-1.1,7.1-1.8,10.7l-0.1,0.3
			c-0.8,3.7-1.7,7.2-2.7,10.7c-1,3.5-2.3,6.8-3.8,9.9c-1.5,3.1-3.4,5.9-5.6,8.5c-2.2,2.6-4.9,4.8-8,6.7c-3.1,1.9-6.8,3.3-11,4.4
			c-4.2,1-9.1,1.6-14.6,1.6H642z M645.2,141.7c5.2,0,9.5-0.7,12.9-2c3.4-1.3,6.3-3.3,8.5-5.9c2.3-2.6,4.1-5.8,5.4-9.6
			c1.4-3.8,2.6-8.1,3.6-13l0.5-2.5c1-4.8,1.7-9.2,1.9-12.9c0.2-3.8-0.2-7-1.4-9.6c-1.2-2.6-3.2-4.5-6-5.9c-2.9-1.3-6.9-2-12.1-2
			l-1.6,0c-5.2,0-9.5,0.7-12.9,2c-3.4,1.3-6.3,3.3-8.5,5.9c-2.3,2.6-4.1,5.8-5.4,9.6c-1.3,3.8-2.5,8.1-3.6,12.9l-0.5,2.5
			c-1,4.8-1.7,9.2-1.9,12.9c-0.3,3.8,0.2,7,1.3,9.6c1.2,2.6,3.2,4.6,6,5.9c2.9,1.4,6.9,2,12.1,2L645.2,141.7z"/>
		<path class="st2" d="M708.1,148.4c-0.2,0.8-0.5,1.4-0.9,1.8c-0.4,0.4-1,0.8-1.6,1.1c-0.6,0.3-1.3,0.5-2.1,0.5
			c-0.7,0.1-1.5,0.1-2.3,0.1c-1.6,0-3-0.2-4.2-0.7c-1.1-0.5-1.6-1.4-1.3-2.8l16.3-76.6c0.1-0.7,0.4-1.3,0.9-1.8
			c0.4-0.5,1-0.8,1.7-1.1c0.7-0.3,1.3-0.5,2.1-0.5c0.7-0.1,1.5-0.1,2.2-0.1c1.7,0,3.1,0.2,4.2,0.7c1.1,0.5,1.5,1.4,1.2,2.8
			L708.1,148.4z M719,39c0.1-0.7,0.4-1.3,0.9-1.8c0.4-0.5,1-0.8,1.6-1.1c0.6-0.3,1.3-0.5,2.1-0.5c0.7-0.1,1.5-0.1,2.3-0.1
			c1.7,0,3.1,0.2,4.2,0.7c1.1,0.5,1.5,1.4,1.2,2.8l-2.7,12.9c-0.2,0.8-0.5,1.4-0.9,1.8c-0.4,0.4-1,0.8-1.6,1.1
			c-0.6,0.3-1.3,0.4-2.1,0.5c-0.7,0.1-1.5,0.1-2.3,0.1c-1.6,0-3-0.2-4.2-0.7c-1.1-0.5-1.6-1.4-1.3-2.8L719,39z"/>
		<path class="st2" d="M750.3,90.1c-0.5,2.5-0.1,4.5,1.1,6c1.3,1.6,3.1,2.9,5.5,3.9c2.4,1,5.2,1.9,8.3,2.7c3.2,0.8,6.4,1.5,9.7,2.3
			c3.3,0.8,6.5,1.7,9.7,2.8c3.1,1.1,5.8,2.4,8,4.1c2.2,1.7,3.9,3.8,5,6.3c1.1,2.5,1.2,5.6,0.4,9.3c-0.3,1.6-0.9,3.4-1.6,5.2
			c-0.7,1.9-1.7,3.7-3,5.5c-1.3,1.8-2.9,3.5-4.8,5.2c-1.9,1.6-4.3,3.1-7.1,4.3c-2.8,1.3-6,2.3-9.8,3c-3.7,0.7-8,1.1-12.8,1.1
			c-4.1,0-8.2-0.3-12.2-0.9c-4-0.6-7.6-1.5-10.7-2.7c-3.1-1.2-5.5-2.6-7.3-4.2c-1.8-1.6-2.4-3.5-2-5.5c0.2-1,0.7-2,1.5-2.8
			c0.8-0.8,1.8-1.2,2.9-1.2c1,0,2.2,0.4,3.6,1.1c1.4,0.8,3.3,1.6,5.6,2.5c2.3,0.9,5.1,1.7,8.4,2.4c3.3,0.7,7.5,1.1,12.3,1.1
			c3,0,5.9-0.3,8.7-0.9c2.7-0.6,5.2-1.4,7.4-2.5s4-2.5,5.5-4.2c1.5-1.7,2.4-3.7,2.9-6c0.5-2.5,0.1-4.5-1.1-6
			c-1.3-1.6-3.1-2.8-5.5-3.9c-2.4-1-5.2-1.9-8.3-2.7c-3.2-0.7-6.4-1.5-9.8-2.3c-3.3-0.8-6.5-1.8-9.6-2.8c-3.1-1.1-5.8-2.5-8-4.2
			c-2.2-1.7-3.9-3.9-4.9-6.4c-1.1-2.6-1.2-5.7-0.4-9.5c0.8-3.7,2.3-6.9,4.6-9.7c2.3-2.8,5-5.1,8.3-7c3.3-1.9,6.9-3.3,10.9-4.2
			c4-0.9,8.2-1.4,12.5-1.4c1.5,0,3.2,0.1,5.1,0.2c2,0.1,4,0.3,6,0.7c2,0.3,4.1,0.8,6.1,1.3c2,0.5,3.9,1.3,5.5,2.1
			c1.7,0.9,3,1.9,4.2,3.2c1.1,1.3,1.8,2.8,2.1,4.5c0,0.6,0,1.2-0.2,1.8c-0.2,0.6-0.4,1.2-0.9,1.7c-0.4,0.5-1,0.9-1.7,1.3
			c-0.7,0.3-1.5,0.5-2.5,0.5c-1,0-2.1-0.4-3.3-1.1c-1.2-0.7-2.8-1.5-4.8-2.4c-2-0.8-4.4-1.6-7.3-2.4c-2.9-0.7-6.5-1.1-10.8-1.1
			c-3.6,0-6.8,0.4-9.4,1.2c-2.6,0.8-4.8,1.8-6.5,3c-1.7,1.2-3,2.5-3.9,3.9C751.1,87.8,750.5,89.1,750.3,90.1z"/>
	</g>
	<g>
		<g>
			<g>
				<path class="st3" d="M175.6,226.9L175.6,226.9c3.2,3.1,2.1,8.5-2.6,11.7l-81.9,56.2c-3.3,2.3-7.2,1.4-6.5-1.5l6.8-31.9
					c0.3-1.2,0-2.2-1.2-2.6c-45.9-16.1-71.8-57-61.1-105.1c10.2-46,51.2-85.8,101.3-103.8c5.2-1.9,6.8,3,1.9,5.8
					C101.8,73.4,78.5,101,71.6,132c-6.7,30.1,3.5,56.9,24.9,74.4c2.2,1.8,6.7-0.5,7.5-3.7l5.2-26.5c0.7-3.3,7.3-4.6,9.4-2.6
					L175.6,226.9z"/>
			</g>
		</g>
	</g>
</g>
</svg>
